<svg width="24" height="24" viewBox="0 0 24 24" fill="none" xmlns="http://www.w3.org/2000/svg">
<circle cx="12" cy="12" r="12" fill="#373737"/>
<path d="M16.4895 8.00409C16.3865 8.01961 16.2914 8.07525 16.2198 8.16155C16.0417 8.36605 14.6635 9.99172 13.2631 11.6427C11.995 13.1379 10.9191 14.408 10.5952 14.7869L7.73311 12.2833C7.63734 12.1977 7.51559 12.1597 7.39511 12.1779C7.27474 12.1959 7.16566 12.2687 7.09228 12.3798C7.0189 12.491 6.98732 12.6311 7.00464 12.7692C7.02196 12.9071 7.08669 13.0314 7.18435 13.1143L10.3632 15.8948V15.8947C10.451 15.9707 10.5596 16.0076 10.6692 15.9987C10.7788 15.9897 10.8819 15.9354 10.9593 15.8458C11.1374 15.6413 12.5156 14.0211 13.9159 12.3703C15.3162 10.7194 16.7383 9.03775 16.8629 8.89469C16.9543 8.79238 17.0041 8.65056 16.9997 8.504C16.9955 8.35757 16.9378 8.21986 16.8406 8.1247C16.7435 8.02953 16.6159 7.98578 16.4892 8.00408L16.4895 8.00409Z" fill="white"/>
</svg>
