<svg width="175" height="32" viewBox="0 0 175 32" fill="none" xmlns="http://www.w3.org/2000/svg">
<path d="M26.9904 25.9175V5.42725H34.493C35.985 5.42725 37.3616 5.6374 38.6225 6.05772C39.8835 6.47802 40.8922 7.18205 41.6487 8.16979C42.4263 9.15752 42.8152 10.513 42.8152 12.2363C42.8152 13.8965 42.4263 15.2626 41.6487 16.3343C40.8922 17.3851 39.8835 18.1627 38.6225 18.6671C37.3826 19.1715 36.0481 19.4236 34.619 19.4236H32.4124V25.9175H26.9904ZM32.4124 15.1364H34.3669C35.4386 15.1364 36.2267 14.8843 36.7311 14.3799C37.2564 13.8545 37.5192 13.14 37.5192 12.2363C37.5192 11.3116 37.2354 10.6601 36.6681 10.2819C36.1007 9.90358 35.2915 9.71444 34.2407 9.71444H32.4124V15.1364Z" fill="#F44769"/>
<path d="M46.1692 25.9175V5.42725H52.2217C54.3022 5.42725 56.1305 5.774 57.7068 6.46752C59.3039 7.14002 60.5438 8.22232 61.4266 9.71444C62.3092 11.2065 62.7505 13.161 62.7505 15.5778C62.7505 17.9946 62.3092 19.9701 61.4266 21.5042C60.5438 23.0174 59.3355 24.1311 57.8013 24.8457C56.2672 25.5602 54.5124 25.9175 52.5369 25.9175H46.1692ZM51.5912 21.5672H51.9065C52.8941 21.5672 53.7873 21.3991 54.5859 21.0629C55.3846 20.7266 56.015 20.1277 56.4773 19.266C56.9607 18.4044 57.2024 17.175 57.2024 15.5778C57.2024 13.9806 56.9607 12.7722 56.4773 11.9526C56.015 11.112 55.3846 10.5445 54.5859 10.2503C53.7873 9.9351 52.8941 9.77748 51.9065 9.77748H51.5912V21.5672Z" fill="#F44769"/>
<path d="M66.3947 25.9175V5.42725H79.7606V9.96662H71.8167V13.8755H78.6257V18.4149H71.8167V25.9175H66.3947Z" fill="#F44769"/>
<path d="M89.5651 25.9175V5.23816H92.7175L96.689 16.2714C96.9419 16.9859 97.1834 17.711 97.4145 18.4465C97.6665 19.161 97.9184 19.8755 98.1713 20.5901H98.2968C98.5497 19.8755 98.7808 19.161 98.9909 18.4465C99.2219 17.711 99.4634 16.9859 99.7154 16.2714L103.625 5.23816H106.808V25.9175H104.35V14.5376C104.35 13.6129 104.391 12.5936 104.476 11.4798C104.56 10.345 104.633 9.3257 104.697 8.42202H104.57L102.931 13.119L99.0223 23.837H97.288L93.3795 13.119L91.7403 8.42202H91.6142C91.6772 9.3257 91.7402 10.345 91.8033 11.4798C91.8873 12.5936 91.9295 13.6129 91.9295 14.5376V25.9175H89.5651Z" fill="#1D1D1D"/>
<path d="M115.748 26.2959C114.465 26.2959 113.394 25.9175 112.532 25.161C111.692 24.3834 111.271 23.3116 111.271 21.9456C111.271 20.2643 112.017 18.9824 113.51 18.0997C115.022 17.196 117.408 16.5655 120.665 16.2083C120.665 15.5569 120.57 14.9368 120.381 14.3484C120.214 13.76 119.898 13.2872 119.436 12.9299C118.995 12.5516 118.353 12.3625 117.512 12.3625C116.63 12.3625 115.8 12.5306 115.022 12.8668C114.244 13.2031 113.551 13.5814 112.942 14.0017L111.933 12.2049C112.647 11.7425 113.52 11.3012 114.55 10.8809C115.6 10.4395 116.735 10.2189 117.954 10.2189C119.825 10.2189 121.18 10.7968 122.02 11.9527C122.862 13.0875 123.282 14.6111 123.282 16.5235V25.9175H121.138L120.917 24.0892H120.823C120.108 24.6776 119.32 25.1925 118.458 25.6338C117.618 26.0752 116.714 26.2959 115.748 26.2959ZM116.504 24.2152C117.239 24.2152 117.933 24.0367 118.585 23.6794C119.236 23.3221 119.929 22.8178 120.665 22.1663V17.9106C118.122 18.2258 116.336 18.6987 115.306 19.3291C114.298 19.9596 113.793 20.7687 113.793 21.7564C113.793 22.6181 114.055 23.2486 114.581 23.6478C115.106 24.0261 115.748 24.2152 116.504 24.2152Z" fill="#1D1D1D"/>
<path d="M132.105 26.2959C131.013 26.2959 129.971 26.0962 128.985 25.6969C127.997 25.2765 127.135 24.7722 126.399 24.1838L127.691 22.45C128.365 22.9753 129.058 23.4167 129.772 23.774C130.487 24.1102 131.296 24.2783 132.199 24.2783C133.208 24.2783 133.965 24.0471 134.47 23.5848C134.974 23.1015 135.226 22.5341 135.226 21.8826C135.226 21.3572 135.047 20.9158 134.69 20.5586C134.354 20.2013 133.912 19.9071 133.366 19.6759C132.841 19.4237 132.294 19.1926 131.727 18.9824C131.013 18.7092 130.308 18.4045 129.615 18.0682C128.921 17.711 128.353 17.2592 127.912 16.7127C127.471 16.1453 127.25 15.4308 127.25 14.5691C127.25 13.3292 127.712 12.2994 128.637 11.4798C129.584 10.6392 130.886 10.2189 132.546 10.2189C133.492 10.2189 134.375 10.387 135.194 10.7232C136.014 11.0595 136.718 11.4693 137.306 11.9527L136.045 13.5919C135.52 13.1926 134.974 12.8668 134.406 12.6147C133.838 12.3625 133.218 12.2364 132.546 12.2364C131.579 12.2364 130.865 12.457 130.403 12.8984C129.961 13.3397 129.74 13.8546 129.74 14.443C129.74 14.9264 129.898 15.3257 130.214 15.6409C130.529 15.9351 130.938 16.1978 131.443 16.429C131.947 16.6391 132.483 16.8598 133.051 17.091C133.786 17.3642 134.511 17.6794 135.226 18.0367C135.941 18.3729 136.529 18.8353 136.991 19.4237C137.474 19.9912 137.716 20.7582 137.716 21.7249C137.716 22.5445 137.495 23.3011 137.054 23.9946C136.634 24.6882 136.003 25.2451 135.163 25.6654C134.343 26.0856 133.324 26.2959 132.105 26.2959Z" fill="#1D1D1D"/>
<path d="M145.515 26.2958C143.876 26.2958 142.731 25.8229 142.08 24.8773C141.449 23.9315 141.134 22.7021 141.134 21.189V12.7092H138.864V10.7547L141.26 10.5971L141.575 6.30994H143.75V10.5971H147.88V12.7092H143.75V21.2205C143.75 22.1663 143.919 22.9018 144.254 23.4272C144.612 23.9315 145.232 24.1837 146.114 24.1837C146.388 24.1837 146.682 24.1417 146.997 24.0577C147.312 23.9525 147.596 23.858 147.848 23.774L148.352 25.7284C147.932 25.8755 147.47 26.0016 146.966 26.1066C146.482 26.2327 145.999 26.2958 145.515 26.2958Z" fill="#1D1D1D"/>
<path d="M157.123 26.2959C155.757 26.2959 154.517 25.9806 153.403 25.3501C152.289 24.6986 151.407 23.774 150.755 22.5761C150.104 21.3782 149.778 19.9491 149.778 18.2889C149.778 16.6076 150.104 15.1681 150.755 13.9702C151.428 12.7723 152.289 11.8476 153.34 11.1961C154.391 10.5446 155.495 10.2189 156.65 10.2189C158.605 10.2189 160.107 10.8704 161.158 12.1733C162.23 13.4763 162.765 15.2206 162.765 17.4062C162.765 17.6794 162.755 17.9527 162.734 18.2258C162.734 18.478 162.713 18.6987 162.671 18.8879H152.331C152.437 20.506 152.941 21.7985 153.845 22.7652C154.769 23.732 155.967 24.2152 157.438 24.2152C158.174 24.2152 158.846 24.1102 159.456 23.9001C160.086 23.6688 160.685 23.3747 161.253 23.0173L162.167 24.7196C161.515 25.14 160.77 25.5078 159.929 25.8229C159.109 26.1382 158.174 26.2959 157.123 26.2959ZM152.3 17.0279H160.496C160.496 15.4728 160.16 14.2959 159.487 13.4973C158.836 12.6777 157.912 12.2679 156.714 12.2679C155.641 12.2679 154.675 12.6882 153.813 13.5288C152.972 14.3484 152.468 15.5148 152.3 17.0279Z" fill="#1D1D1D"/>
<path d="M166.551 25.9175V10.5972H168.695L168.916 13.3712H169.01C169.536 12.4045 170.177 11.6374 170.933 11.07C171.689 10.5026 172.498 10.2189 173.361 10.2189C173.97 10.2189 174.516 10.324 175 10.5341L174.495 12.8038C174.243 12.7197 174.012 12.6567 173.802 12.6147C173.592 12.5726 173.329 12.5516 173.014 12.5516C172.363 12.5516 171.679 12.8143 170.965 13.3397C170.271 13.8651 169.661 14.7793 169.136 16.0823V25.9175H166.551Z" fill="#1D1D1D"/>
<path d="M8.66335 5V11.9307C8.66335 12.3902 8.84589 12.8309 9.17084 13.1559C9.49577 13.4808 9.93645 13.6633 10.396 13.6633H17.3258L17.3267 13.7309V23.7128C17.3267 24.2643 17.1076 24.7931 16.7177 25.1831C16.3278 25.573 15.7989 25.792 15.2475 25.792H2.0792C1.52776 25.792 0.998913 25.573 0.608985 25.1831C0.219058 24.7931 0 24.2643 0 23.7128V7.0792C0 6.52776 0.219058 5.99891 0.608985 5.60898C0.998913 5.21906 1.52776 5 2.0792 5H8.66335Z" fill="#F44769"/>
<path d="M9.96265 5.41162V11.9308C9.96265 12.0457 10.0083 12.1558 10.0895 12.2371C10.1707 12.3183 10.2809 12.364 10.3958 12.364H16.8951C16.8158 12.2507 16.7268 12.1446 16.629 12.0469L10.1913 5.60915C10.12 5.53785 10.0436 5.47183 9.96265 5.41162Z" fill="#F44769"/>
</svg>
