<svg width="20" height="14" viewBox="0 0 20 14" fill="none" xmlns="http://www.w3.org/2000/svg">
<path fill-rule="evenodd" clip-rule="evenodd" d="M11.3339 1.22947C11.4174 1.15696 11.5179 1.09923 11.6292 1.05978C11.7405 1.02034 11.8604 1 11.9815 1C12.1026 1 12.2224 1.02034 12.3338 1.05978C12.4451 1.09923 12.5456 1.15696 12.6291 1.22947L18.7332 6.44683C18.8189 6.51991 18.8865 6.60609 18.9323 6.70056C18.9723 6.78368 18.9952 6.87176 19 6.96114C19 6.97409 19 6.98743 19 7.00114C19.001 7.20734 18.9048 7.40575 18.7318 7.55431L12.6277 12.7705C12.5442 12.843 12.4437 12.9008 12.3324 12.9402C12.2211 12.9797 12.1012 13 11.9801 13C11.859 13 11.7391 12.9797 11.6278 12.9402C11.5165 12.9008 11.416 12.843 11.3325 12.7705C11.1602 12.6216 11.0639 12.4235 11.0639 12.2174C11.0639 12.0113 11.1602 11.8131 11.3325 11.6642L15.8733 7.77832H1.94686C1.69574 7.77832 1.4549 7.69584 1.27733 7.54902C1.09976 7.4022 1 7.20306 1 6.99543C1 6.78779 1.09976 6.58866 1.27733 6.44184C1.4549 6.29502 1.69574 6.21254 1.94686 6.21254H15.8747L11.3339 2.3358C11.1615 2.1869 11.0653 1.98874 11.0653 1.78263C11.0653 1.57653 11.1615 1.37837 11.3339 1.22947Z" fill="white" stroke="white"/>
</svg>
