<svg width="23" height="18" viewBox="0 0 23 18" fill="none" xmlns="http://www.w3.org/2000/svg">
<g id="Frame 1000002666">
<path id="Union" fill-rule="evenodd" clip-rule="evenodd" d="M13.4174 0.344201C13.5218 0.235434 13.6474 0.148842 13.7865 0.0896751C13.9257 0.0305084 14.0755 0 14.2269 0C14.3782 0 14.5281 0.0305084 14.6672 0.0896751C14.8064 0.148842 14.9319 0.235434 15.0364 0.344201L22.6665 8.17025C22.7736 8.27986 22.8581 8.40914 22.9153 8.55084C22.9654 8.67552 22.994 8.80764 23 8.94171C23 8.96114 23 8.98114 23 9.00171C23.0012 9.31101 22.881 9.60863 22.6648 9.83146L15.0346 17.6558C14.9302 17.7646 14.8046 17.8512 14.6655 17.9103C14.5263 17.9695 14.3765 18 14.2251 18C14.0737 18 13.9239 17.9695 13.7848 17.9103C13.6456 17.8512 13.52 17.7646 13.4156 17.6558C13.2002 17.4324 13.0799 17.1352 13.0799 16.826C13.0799 16.5169 13.2002 16.2197 13.4156 15.9963L19.0916 10.1675H1.68357C1.36967 10.1675 1.06862 10.0438 0.846661 9.82352C0.624698 9.60329 0.5 9.3046 0.5 8.99314C0.5 8.68169 0.624698 8.38299 0.846661 8.16276C1.06862 7.94253 1.36967 7.81881 1.68357 7.81881H19.0933L13.4174 2.0037C13.2019 1.78035 13.0817 1.48311 13.0817 1.17395C13.0817 0.864788 13.2019 0.567553 13.4174 0.344201Z" fill="#373737"/>
</g>
</svg>
