<svg width="20" height="21" viewBox="0 0 20 21" fill="none" xmlns="http://www.w3.org/2000/svg">
<circle cx="10" cy="10.5" r="10" fill="#E6E6E6"/>
<path d="M5.17018 10.531C4.93137 10.2787 4.94563 9.88376 5.20205 9.64881C5.45846 9.41387 5.85992 9.42791 6.09873 9.68017L9.19468 12.9504C9.43349 13.2027 9.41922 13.5976 9.16281 13.8326C8.9064 14.0675 8.50494 14.0535 8.26612 13.8012L5.17018 10.531Z" fill="#373737"/>
<path d="M13.2128 7.22298C13.4381 6.95891 13.8383 6.92446 14.1067 7.14604C14.3751 7.36763 14.4101 7.76133 14.1849 8.0254L9.30602 13.7456C9.08078 14.0097 8.6806 14.0441 8.41218 13.8225C8.14375 13.601 8.10874 13.2073 8.33398 12.9432L13.2128 7.22298Z" fill="#373737"/>
</svg>
