<svg width="18" height="22" viewBox="0 0 18 22" fill="none" xmlns="http://www.w3.org/2000/svg">
<path d="M2.37691 18.0213H11.844C12.6735 18.0213 13.3459 17.3489 13.3459 16.5194V9.51064V5.74664C13.3459 5.42742 13.2442 5.1165 13.0556 4.85899L10.6782 1.61426C10.3954 1.22815 9.94537 1 9.46671 1H7.11047H2.37691C1.54743 1 0.875 1.67243 0.875 2.50191V16.5194C0.875 17.3488 1.54743 18.0213 2.37691 18.0213Z" fill="#F4DFEE" stroke="#373737" stroke-width="0.9"/>
<path d="M6.15596 21H15.6231C16.4526 21 17.125 20.3276 17.125 19.4981V12.4894V8.72537C17.125 8.40615 17.0233 8.09522 16.8346 7.83772L14.4573 4.59299C14.1744 4.20688 13.7244 3.97873 13.2458 3.97873H10.8895H6.15596C5.32648 3.97873 4.65405 4.65116 4.65405 5.48064V19.4981C4.65405 20.3276 5.32648 21 6.15596 21Z" fill="#F4DFEE" stroke="#373737" stroke-width="0.9"/>
</svg>
