<svg width="24" height="24" viewBox="0 0 24 24" fill="none" xmlns="http://www.w3.org/2000/svg">
<circle cx="12" cy="12" r="12" fill="#F6F6F6"/>
<path d="M16.7674 7.23264C16.6184 7.08368 16.4163 7 16.2056 7C15.9949 7 15.7929 7.08368 15.6439 7.23264L12 10.8765L8.35615 7.23264C8.20714 7.08368 8.00508 7 7.79439 7C7.5837 7 7.38164 7.08368 7.23264 7.23264C7.08368 7.38164 7 7.5837 7 7.79439C7 8.00508 7.08368 8.20714 7.23264 8.35615L10.8765 12L7.23264 15.6439C7.08368 15.7929 7 15.9949 7 16.2056C7 16.4163 7.08368 16.6184 7.23264 16.7674C7.38164 16.9163 7.5837 17 7.79439 17C8.00508 17 8.20714 16.9163 8.35615 16.7674L12 13.1235L15.6439 16.7674C15.7929 16.9163 15.9949 17 16.2056 17C16.4163 17 16.6184 16.9163 16.7674 16.7674C16.9163 16.6184 17 16.4163 17 16.2056C17 15.9949 16.9163 15.7929 16.7674 15.6439L13.1235 12L16.7674 8.35615C16.9163 8.20714 17 8.00508 17 7.79439C17 7.5837 16.9163 7.38164 16.7674 7.23264Z" fill="#1D1D1D"/>
</svg>
