<svg width="20" height="20" viewBox="0 0 20 20" fill="none" xmlns="http://www.w3.org/2000/svg">
<path d="M17.8 18.0741C17.8 18.8892 17.1392 19.55 16.3241 19.55H3.92593C3.11079 19.55 2.45 18.8892 2.45 18.0741V1.92593C2.45 1.11079 3.11079 0.45 3.92593 0.45H10.125H13.2708C13.7153 0.45 14.136 0.650279 14.4163 0.995218L17.4696 4.75307C17.6833 5.01616 17.8 5.3448 17.8 5.68378V10V18.0741Z" fill="#FFD887" stroke="#373737" stroke-width="0.9"/>
<path d="M15.8489 8.76598L12.1536 5.07069C12.1106 5.02557 12.0511 5 11.9887 5C11.9265 5 11.8669 5.02557 11.824 5.07069L10.0059 6.88876L7.22658 7.50465C7.14212 7.52269 7.07523 7.58698 7.05385 7.67061L5.00848 15.6247C4.98893 15.6943 5.00361 15.7689 5.04805 15.8259C5.09241 15.8828 5.16128 15.9153 5.23349 15.9133C5.25236 15.9156 5.27138 15.9156 5.29025 15.9133L13.2444 13.868C13.3279 13.8466 13.3923 13.7796 13.4103 13.6953L14.0239 10.9136L15.842 9.09549C15.884 9.05318 15.9077 8.99603 15.9079 8.93638C15.9126 8.87391 15.8912 8.81224 15.8489 8.76598ZM13.6558 10.6386C13.6243 10.6685 13.6028 10.7074 13.5944 10.75L12.9944 13.459L5.98118 15.2589L9.05604 12.1864C9.48969 12.5102 10.0582 12.5914 10.565 12.4019C11.0719 12.2123 11.4478 11.7782 11.5626 11.2493C11.6774 10.7205 11.5155 10.1695 11.1328 9.7869C10.7502 9.40422 10.1993 9.24231 9.67043 9.35714C9.14159 9.47197 8.70739 9.8478 8.51785 10.3547C8.32838 10.8616 8.40958 11.43 8.73334 11.8637L5.66081 14.9386L7.46069 7.92531L10.1697 7.32532C10.2123 7.31695 10.2512 7.29549 10.2811 7.26391L10.8857 6.66164L14.2582 10.0343L13.6558 10.6386ZM8.86968 10.9136C8.86968 10.6123 8.98945 10.3232 9.20251 10.1102C9.41564 9.89703 9.70464 9.77732 10.006 9.77732C10.3074 9.77732 10.5965 9.89702 10.8095 10.1102C11.0226 10.3232 11.1423 10.6123 11.1423 10.9136C11.1423 11.215 11.0226 11.504 10.8095 11.7171C10.5964 11.9302 10.3074 12.05 10.006 12.05C9.70464 12.05 9.41564 11.9302 9.20251 11.7171C8.98944 11.504 8.86968 11.215 8.86968 10.9136ZM14.5807 9.71142L11.2082 6.33891L11.9923 5.55258L15.3671 8.92743L14.5807 9.71142Z" fill="#373737" stroke="#373737" stroke-width="0.3"/>
</svg>
