<svg width="437" height="480" viewBox="0 0 437 480" fill="none" xmlns="http://www.w3.org/2000/svg">
<path d="M341.197 440.855L51.1227 440.392C45.475 440.384 40.8621 435.754 40.8705 430.109L41.8131 65.1792C41.8208 59.5315 46.4507 54.9186 52.0963 54.9269L342.17 55.3899C347.818 55.3976 352.431 60.0275 352.423 65.6731L351.48 430.603C351.472 436.25 346.842 440.863 341.197 440.855Z" fill="#B3A7F3"/>
<path d="M267.099 110.233L126.272 110.008C122.095 110.002 118.681 106.578 118.689 102.4C118.697 98.2229 122.119 94.8096 126.296 94.8175L267.123 95.0431C271.3 95.0488 274.714 98.4727 274.706 102.65C274.7 106.827 271.276 110.239 267.099 110.233Z" fill="white"/>
<path d="M307.533 154.461L85.7023 154.107C81.5248 154.099 78.1115 150.677 78.1193 146.499C78.1272 142.322 81.549 138.909 85.7265 138.916L307.557 139.27C311.734 139.276 315.148 142.7 315.14 146.878C315.132 151.055 311.71 154.468 307.533 154.461Z" fill="white"/>
<path d="M307.478 189.435L85.6474 189.081C81.4699 189.073 78.0565 185.651 78.0644 181.473C78.0723 177.296 81.494 173.883 85.6715 173.89L307.502 174.244C311.679 174.252 315.093 177.674 315.085 181.852C315.079 186.029 311.655 189.44 307.478 189.435Z" fill="white"/>
<path d="M307.42 224.406L85.5901 224.053C81.4132 224.047 77.9991 220.623 78.007 216.445C78.0149 212.268 81.4367 208.855 85.6142 208.862L307.444 209.216C311.622 209.224 315.035 212.646 315.027 216.824C315.022 221 311.598 224.414 307.42 224.406Z" fill="white"/>
<path d="M307.363 259.378L85.5329 259.024C81.356 259.019 77.942 255.595 77.9499 251.417C77.9578 247.24 81.3795 243.826 85.557 243.834L307.387 244.188C311.564 244.194 314.978 247.618 314.97 251.795C314.965 255.972 311.543 259.386 307.363 259.378Z" fill="white"/>
<path d="M307.308 294.352L85.478 293.998C81.3005 293.99 77.8871 290.569 77.895 286.391C77.9006 282.214 81.3246 278.8 85.5021 278.808L307.332 279.162C311.51 279.17 314.923 282.592 314.915 286.769C314.91 290.946 311.485 294.358 307.308 294.352Z" fill="white"/>
<path d="M307.252 329.324L85.4218 328.97C81.2449 328.964 77.8309 325.54 77.8388 321.363C77.8467 317.185 81.2684 313.772 85.4459 313.78L307.276 314.134C311.454 314.142 314.867 317.563 314.859 321.741C314.854 325.918 311.43 329.332 307.252 329.324Z" fill="white"/>
<path d="M307.195 364.296L85.3644 363.942C81.1869 363.934 77.7736 360.512 77.7814 356.335C77.7893 352.157 81.2111 348.744 85.3886 348.752L307.219 349.106C311.396 349.111 314.81 352.535 314.802 356.713C314.796 360.89 311.374 364.303 307.195 364.296Z" fill="white"/>
<path d="M307.141 399.269L85.311 398.915C81.1341 398.91 77.7201 395.486 77.728 391.308C77.7337 387.131 81.1576 383.717 85.3351 383.725L307.165 384.079C311.342 384.085 314.756 387.509 314.748 391.686C314.743 395.863 311.318 399.275 307.141 399.269Z" fill="white"/>
<path d="M280.954 61.0261L64.4178 61.0016C55.9372 61.0014 49.0597 67.8746 49.0597 76.3572L49.0217 415.857C49.0214 424.337 55.8946 431.215 64.3772 431.215L327.686 431.243C336.167 431.243 343.044 424.37 343.044 415.887L343.077 123.163L280.954 61.0261Z" fill="white"/>
<path d="M280.948 107.799C280.948 116.279 287.821 123.157 296.301 123.157L343.074 123.163L280.952 61.0261L280.948 107.799Z" fill="#F7F7F7"/>
<path d="M293.867 122.964L343.076 131.033L343.078 123.163L293.867 122.964Z" fill="#DEDEDE"/>
<path d="M262.274 135.943L129.856 135.929C126.285 135.928 123.365 133.006 123.366 129.437C123.367 125.866 126.289 122.946 129.858 122.948L262.276 122.962C265.847 122.963 268.767 125.884 268.766 129.453C268.766 133.022 265.845 135.942 262.274 135.943Z" fill="#14B7A7"/>
<path d="M305.513 180.009L86.6025 179.986C83.0314 179.985 80.1114 177.064 80.1126 173.495C80.1135 169.924 83.0353 167.004 86.6043 167.005L305.513 167.028C309.084 167.029 312.004 169.951 312.002 173.52C312.003 177.089 309.082 180.011 305.513 180.009Z" fill="#EBE7F5"/>
<path d="M305.511 213.057L86.6022 213.034C83.0311 213.033 80.1112 210.111 80.1123 206.542C80.1133 202.971 83.035 200.051 86.604 200.052L305.512 200.076C309.083 200.077 312.003 202.998 312.002 206.567C312.003 210.136 309.081 213.056 305.511 213.057Z" fill="#EBE7F5"/>
<path d="M305.508 246.103L86.5995 246.08C83.0284 246.079 80.1085 243.157 80.1097 239.588C80.1106 236.017 83.0323 233.097 86.6013 233.098L305.51 233.121C309.081 233.122 312.001 236.044 312 239.613C312 243.182 309.079 246.104 305.508 246.103Z" fill="#EBE7F5"/>
<path d="M305.502 279.149L86.5941 279.125C83.0231 279.125 80.1031 276.203 80.1043 272.634C80.1052 269.063 83.027 266.143 86.596 266.144L305.504 266.167C309.075 266.168 311.995 269.09 311.994 272.659C311.995 276.23 309.074 279.15 305.502 279.149Z" fill="#EBE7F5"/>
<path d="M305.5 312.197L86.5914 312.173C83.0204 312.172 80.1004 309.251 80.1016 305.682C80.1026 302.111 83.0243 299.191 86.5933 299.192L305.502 299.215C309.073 299.216 311.993 302.138 311.991 305.707C311.99 309.276 309.069 312.198 305.5 312.197Z" fill="#EBE7F5"/>
<path d="M305.496 345.242L86.5873 345.219C83.0162 345.218 80.0963 342.296 80.0974 338.727C80.0984 335.156 83.0201 332.236 86.5891 332.237L305.497 332.261C309.069 332.262 311.988 335.183 311.987 338.752C311.986 342.323 309.065 345.243 305.496 345.242Z" fill="#EBE7F5"/>
<path d="M236.771 389.747C236.606 388.707 235.437 388.185 234.644 388.984C233.587 390.045 232.487 391.097 231.22 391.907C230.604 392.232 229.985 392.555 229.369 392.879C228.157 393.687 227.387 393.228 227.056 391.498C228.108 390.314 226.352 388.739 225.245 389.852C223.878 391.227 222.07 393.084 219.931 393.042C219.309 393.031 218.608 392.828 217.914 392.585C218.304 392.208 218.673 391.807 219.004 391.324C219.265 390.943 219.124 390.458 218.946 390.091C218.446 389.058 217.838 388.403 217.346 387.703C221.848 382.164 225.493 375.224 226.837 368.682C227.097 367.416 225.609 366.793 224.736 367.592C220.653 371.331 217.06 375.886 214.957 381.053C214.213 382.878 213.631 384.838 214.163 386.81C214.218 387.012 214.311 387.197 214.386 387.39C213.275 388.66 212.134 389.864 210.953 390.908C209.302 392.37 207.541 393.621 205.508 394.495C204.059 395.118 201.884 396.084 200.701 394.729C203.901 392.468 206.367 389.483 204.554 386.271C201.827 381.44 197.365 389.62 197.534 393.913C195.962 394.856 194.274 395.593 192.546 396.211C191.068 396.74 191.821 399.07 193.31 398.538C194.5 398.113 196.407 397.302 198.348 396.213C201.76 400.994 210.338 394.846 213.171 392.215C214.015 391.43 214.843 390.579 215.653 389.688C216.483 390.864 216.505 390.65 214.886 392.009C214.074 392.69 214.213 393.909 215.285 394.229C217.263 394.822 219.34 395.825 221.422 395.365C222.064 395.222 222.673 394.947 223.259 394.617C223.348 394.94 223.533 395.236 223.835 395.391C227.403 397.231 231.449 394.978 234.442 392.478C234.282 396.333 232.572 400.276 229.913 402.97C225.71 407.229 219.711 406.923 214.208 406.427C212.66 406.287 212.108 408.674 213.671 408.815C219.672 409.355 226.064 409.68 230.874 405.422C235.084 401.695 237.655 395.323 236.771 389.747ZM201.042 388.992C202.776 387.337 201.777 390.237 201.188 390.982C200.821 391.448 200.364 391.86 199.89 392.248C199.861 391.442 200.553 389.458 201.042 388.992ZM216.539 383.915C216.799 381.978 218.23 379.717 219.229 378.039C220.35 376.154 221.651 374.428 223.074 372.799C221.558 376.979 219.239 381.147 216.483 384.804C216.487 384.524 216.495 384.246 216.539 383.915Z" fill="#EBE7F5"/>
<path d="M284.252 411.63C271.342 410.937 261.402 399.869 262.095 386.96C262.789 374.05 273.856 364.11 286.766 364.804C299.675 365.497 309.615 376.564 308.922 389.474C308.231 402.383 297.163 412.323 284.252 411.63ZM286.494 369.864C276.375 369.321 267.702 377.112 267.158 387.229C266.615 397.348 274.405 406.021 284.523 406.565C294.64 407.109 303.315 399.318 303.859 389.2C304.405 379.083 296.614 370.408 286.494 369.864Z" fill="#EBE7F5"/>
<path d="M317.773 368.254L317.614 368.296C315.706 368.808 313.928 369.467 312.219 370.202L309.678 371.331L307.26 372.595C304.06 374.307 301.032 376.211 298.187 378.32C295.239 380.313 292.594 382.643 289.962 384.99C288.495 386.315 287.092 387.71 285.722 389.143C284.788 388.446 283.826 387.773 282.829 387.129C281.492 386.182 280.005 385.371 278.551 384.529C277.047 383.732 275.518 382.957 273.833 382.324L273.679 382.266C273.569 382.224 273.44 382.242 273.342 382.324C273.2 382.445 273.182 382.658 273.303 382.8C277.437 387.678 281.675 392.462 285.916 397.245C286.148 397.499 286.544 397.523 286.798 397.293C292.095 392.641 297.362 387.952 302.545 383.172L310.357 376.045C312.98 373.688 315.511 371.232 318.093 368.83C318.182 368.747 318.224 368.62 318.189 368.494C318.139 368.311 317.952 368.205 317.773 368.254Z" fill="#14B7A7"/>
</svg>
