<svg width="24" height="24" viewBox="0 0 24 24" fill="none" xmlns="http://www.w3.org/2000/svg">
<path d="M4 11.8226V5.62903L7.75 4.5L11 3L14.8831 4.72581L18.5 6V10.5L17.5 13.5L16.1875 16.5L13.375 19.5L11.4463 21L11 21.5L7.75 19L5 15.5L4 11.8226Z" fill="#C8E9E5"/>
<path d="M11 20.983C12.2244 20.2528 18.0563 16.4384 18.0563 9.97017V6.41777C16.995 6.20199 14.023 5.42558 11 3.07418C7.97702 5.42558 5.00504 6.20199 3.94366 6.41777V9.97017C3.94366 16.4384 9.77557 20.2528 11 20.983ZM19 9.97017C19 17.69 11.3689 21.8638 11.2279 21.9404C11.0919 22.0163 10.9213 22.0227 10.7753 21.9423C10.7532 21.9303 3 17.7508 3 9.97081V6.02228H3.00126C3.00126 5.78879 3.17249 5.58567 3.40919 5.5534C3.41989 5.55213 7.03966 5.07692 10.6997 2.10856C10.8684 1.96809 11.1171 1.96113 11.2946 2.10413C14.7639 4.91999 18.198 5.49518 18.5587 5.54897C18.8048 5.56479 18.9994 5.77044 18.9994 6.02228V9.97081L19 9.97017Z" fill="#373737"/>
<path d="M9.96576 15C9.96192 15 9.95793 15 9.95394 14.9998C9.83112 14.9962 9.71459 14.9373 9.63046 14.8362L7.12522 11.8277C6.95082 11.6184 6.95972 11.2888 7.14487 11.0916C7.33002 10.8946 7.62157 10.9045 7.79598 11.1138L9.98249 13.7397L14.2207 9.14489C14.404 8.94598 14.6959 8.95258 14.8718 9.16034C15.0479 9.36792 15.0418 9.69753 14.8582 9.89661L10.2845 14.8552C10.1987 14.9483 10.0843 15 9.96576 15Z" fill="#373737"/>
</svg>
