<svg width="25" height="24" viewBox="0 0 25 24" fill="none" xmlns="http://www.w3.org/2000/svg">
<g id="Icon/24 px/Star filled ">
<path id="Star 6" d="M11.5767 2.21993C11.9183 1.39864 13.0817 1.39864 13.4233 2.21993L15.4395 7.06735C15.5835 7.41358 15.9091 7.65015 16.2829 7.68012L21.5161 8.09966C22.4027 8.17074 22.7623 9.27725 22.0867 9.85592L18.0996 13.2713C17.8148 13.5153 17.6904 13.8981 17.7774 14.2628L18.9956 19.3695C19.202 20.2348 18.2607 20.9186 17.5016 20.455L13.0213 17.7184C12.7012 17.5229 12.2988 17.5229 11.9787 17.7184L7.4984 20.455C6.7393 20.9186 5.79805 20.2348 6.00444 19.3695L7.22257 14.2628C7.30958 13.8981 7.18521 13.5153 6.90042 13.2713L2.91328 9.85592C2.23774 9.27725 2.59727 8.17074 3.48392 8.09966L8.71712 7.68012C9.09091 7.65015 9.41652 7.41358 9.56052 7.06735L11.5767 2.21993Z" fill="#009B63"/>
</g>
</svg>
