<svg width="24" height="24" viewBox="0 0 24 24" fill="none" xmlns="http://www.w3.org/2000/svg">
<g id="Frame 1000002653">
<path id="Rectangle 39388" d="M5.92593 22H18.3241C19.3877 22 20.25 21.1377 20.25 20.0741V12V7.68378C20.25 7.24145 20.0977 6.8126 19.8188 6.46931L16.7656 2.71145C16.3998 2.26134 15.8508 2 15.2708 2H12.125H5.92593C4.86227 2 4 2.86227 4 3.92593V20.0741C4 21.1377 4.86227 22 5.92593 22Z" fill="#7B66F2" fill-opacity="0.2" stroke="#373737" stroke-width="0.9"/>
<g id="Vector">
<path d="M7.11659 10.37L9.5952 13.0075C9.75478 13.1875 10.0702 13.2035 10.2553 13.0468C10.4403 12.8902 10.459 12.5913 10.2875 12.4214L8.49628 10.5166L13.3518 10.5166C13.6085 10.5166 13.8165 10.3197 13.8165 10.077C13.8165 9.8342 13.6085 9.6374 13.3518 9.6374L8.49628 9.6374L10.2875 7.73258C10.459 7.56268 10.4358 7.26434 10.2507 7.10766C10.0657 6.95099 9.75478 6.96649 9.5952 7.14648L7.11659 9.78393C6.95476 9.99716 6.96765 10.1886 7.11659 10.37Z" fill="#373737"/>
<path d="M16.7296 14.2158L14.251 16.8532C14.0914 17.0332 13.7759 17.0492 13.5909 16.8926C13.4058 16.7359 13.3872 16.437 13.5587 16.2671L15.3499 14.3623L10.4943 14.3623C10.2377 14.3623 10.0296 14.1655 10.0296 13.9227C10.0296 13.6799 10.2377 13.4831 10.4943 13.4831H15.3499L13.5587 11.5783C13.3872 11.4084 13.4104 11.1101 13.5954 10.9534C13.7805 10.7967 14.0914 10.8122 14.251 10.9922L16.7296 13.6297C16.8914 13.8429 16.8785 14.0343 16.7296 14.2158Z" fill="#373737"/>
<path d="M7.11659 10.37L9.5952 13.0075C9.75478 13.1875 10.0702 13.2035 10.2553 13.0468C10.4403 12.8902 10.459 12.5913 10.2875 12.4214L8.49628 10.5166L13.3518 10.5166C13.6085 10.5166 13.8165 10.3197 13.8165 10.077C13.8165 9.8342 13.6085 9.6374 13.3518 9.6374L8.49628 9.6374L10.2875 7.73258C10.459 7.56268 10.4358 7.26434 10.2507 7.10766C10.0657 6.95099 9.75478 6.96649 9.5952 7.14648L7.11659 9.78393C6.95476 9.99716 6.96765 10.1886 7.11659 10.37Z" stroke="#373737" stroke-width="0.2"/>
<path d="M16.7296 14.2158L14.251 16.8532C14.0914 17.0332 13.7759 17.0492 13.5909 16.8926C13.4058 16.7359 13.3872 16.437 13.5587 16.2671L15.3499 14.3623L10.4943 14.3623C10.2377 14.3623 10.0296 14.1655 10.0296 13.9227C10.0296 13.6799 10.2377 13.4831 10.4943 13.4831H15.3499L13.5587 11.5783C13.3872 11.4084 13.4104 11.1101 13.5954 10.9534C13.7805 10.7967 14.0914 10.8122 14.251 10.9922L16.7296 13.6297C16.8914 13.8429 16.8785 14.0343 16.7296 14.2158Z" stroke="#373737" stroke-width="0.2"/>
</g>
</g>
</svg>
