<svg width="144" height="24" viewBox="0 0 144 24" fill="none" xmlns="http://www.w3.org/2000/svg">
<path d="M11.0605 2.25887C11.4081 1.42317 12.5919 1.42317 12.9395 2.25888L14.9354 7.05745C15.0819 7.40976 15.4132 7.65048 15.7936 7.68098L20.974 8.09629C21.8762 8.16862 22.2421 9.29454 21.5547 9.88336L17.6077 13.2644C17.3179 13.5126 17.1914 13.9021 17.2799 14.2732L18.4858 19.3285C18.6958 20.2089 17.738 20.9048 16.9656 20.433L12.5304 17.724C12.2048 17.5251 11.7952 17.5251 11.4696 17.724L7.0344 20.433C6.26198 20.9048 5.30421 20.2089 5.51422 19.3285L6.72009 14.2732C6.80862 13.9021 6.68207 13.5126 6.39228 13.2644L2.44531 9.88336C1.75792 9.29454 2.12376 8.16862 3.02597 8.09629L8.20644 7.68098C8.58678 7.65048 8.91811 7.40976 9.06464 7.05745L11.0605 2.25887Z" fill="#009B63"/>
<path d="M41.0605 2.25887C41.4081 1.42317 42.5919 1.42317 42.9395 2.25888L44.9354 7.05745C45.0819 7.40976 45.4132 7.65048 45.7936 7.68098L50.974 8.09629C51.8762 8.16862 52.2421 9.29454 51.5547 9.88336L47.6077 13.2644C47.3179 13.5126 47.1914 13.9021 47.2799 14.2732L48.4858 19.3285C48.6958 20.2089 47.738 20.9048 46.9656 20.433L42.5304 17.724C42.2048 17.5251 41.7952 17.5251 41.4696 17.724L37.0344 20.433C36.262 20.9048 35.3042 20.2089 35.5142 19.3285L36.7201 14.2732C36.8086 13.9021 36.6821 13.5126 36.3923 13.2644L32.4453 9.88336C31.7579 9.29454 32.1238 8.16862 33.026 8.09629L38.2064 7.68098C38.5868 7.65048 38.9181 7.40976 39.0646 7.05745L41.0605 2.25887Z" fill="#009B63"/>
<path d="M71.0605 2.25887C71.4081 1.42317 72.5919 1.42317 72.9395 2.25888L74.9354 7.05745C75.0819 7.40976 75.4132 7.65048 75.7936 7.68098L80.974 8.09629C81.8762 8.16862 82.2421 9.29454 81.5547 9.88336L77.6077 13.2644C77.3179 13.5126 77.1914 13.9021 77.2799 14.2732L78.4858 19.3285C78.6958 20.2089 77.738 20.9048 76.9656 20.433L72.5304 17.724C72.2048 17.5251 71.7952 17.5251 71.4696 17.724L67.0344 20.433C66.262 20.9048 65.3042 20.2089 65.5142 19.3285L66.7201 14.2732C66.8086 13.9021 66.6821 13.5126 66.3923 13.2644L62.4453 9.88336C61.7579 9.29454 62.1238 8.16862 63.026 8.09629L68.2064 7.68098C68.5868 7.65048 68.9181 7.40976 69.0646 7.05745L71.0605 2.25887Z" fill="#009B63"/>
<path d="M101.06 2.25887C101.408 1.42317 102.592 1.42317 102.94 2.25888L104.935 7.05745C105.082 7.40976 105.413 7.65048 105.794 7.68098L110.974 8.09629C111.876 8.16862 112.242 9.29454 111.555 9.88336L107.608 13.2644C107.318 13.5126 107.191 13.9021 107.28 14.2732L108.486 19.3285C108.696 20.2089 107.738 20.9048 106.966 20.433L102.53 17.724C102.205 17.5251 101.795 17.5251 101.47 17.724L97.0344 20.433C96.262 20.9048 95.3042 20.2089 95.5142 19.3285L96.7201 14.2732C96.8086 13.9021 96.6821 13.5126 96.3923 13.2644L92.4453 9.88336C91.7579 9.29454 92.1238 8.16862 93.026 8.09629L98.2064 7.68098C98.5868 7.65048 98.9181 7.40976 99.0646 7.05745L101.06 2.25887Z" fill="#009B63"/>
<path d="M131.06 2.25887C131.408 1.42317 132.592 1.42317 132.94 2.25888L134.935 7.05745C135.082 7.40976 135.413 7.65048 135.794 7.68098L140.974 8.09629C141.876 8.16862 142.242 9.29454 141.555 9.88336L137.608 13.2644C137.318 13.5126 137.191 13.9021 137.28 14.2732L138.486 19.3285C138.696 20.2089 137.738 20.9048 136.966 20.433L132.53 17.724C132.205 17.5251 131.795 17.5251 131.47 17.724L127.034 20.433C126.262 20.9048 125.304 20.2089 125.514 19.3285L126.72 14.2732C126.809 13.9021 126.682 13.5126 126.392 13.2644L122.445 9.88336C121.758 9.29454 122.124 8.16862 123.026 8.09629L128.206 7.68098C128.587 7.65048 128.918 7.40976 129.065 7.05745L131.06 2.25887Z" fill="#009B63"/>
<path d="M131.624 3.90355C131.763 3.56927 132.237 3.56927 132.376 3.90355L134.285 8.49394C134.344 8.63486 134.476 8.73115 134.628 8.74335L139.584 9.14065C139.945 9.16958 140.091 9.61995 139.816 9.85547L136.041 13.0898C135.925 13.1891 135.874 13.3449 135.91 13.4933L137.063 18.3293C137.147 18.6814 136.764 18.9598 136.455 18.7711L132.212 16.1796C132.082 16.1 131.918 16.1 131.788 16.1796L127.545 18.7711C127.236 18.9598 126.853 18.6814 126.937 18.3293L128.091 13.4933C128.126 13.3449 128.075 13.1891 127.96 13.0898L124.184 9.85547C123.909 9.61994 124.055 9.16958 124.416 9.14065L129.372 8.74335C129.524 8.73115 129.656 8.63486 129.715 8.49394L131.624 3.90355Z" fill="white"/>
<path d="M126.438 19.5L132 16.5V2.25L129.497 8.31407L123 8.83891L127.95 13.1116L126.438 19.5Z" fill="#009B63"/>
</svg>
