<svg width="273" height="32" viewBox="0 0 273 32" fill="none" xmlns="http://www.w3.org/2000/svg">
<path d="M14.7689 2.95991C15.2244 1.86485 16.7756 1.86485 17.2311 2.9599L19.9193 9.42313C20.1113 9.88478 20.5455 10.2002 21.0438 10.2402L28.0214 10.7995C29.2036 10.8943 29.683 12.3697 28.7823 13.1412L23.4661 17.6951C23.0864 18.0204 22.9206 18.5308 23.0366 19.0171L24.6608 25.826C24.9359 26.9797 23.6809 27.8915 22.6688 27.2733L16.695 23.6245C16.2683 23.3639 15.7317 23.3639 15.305 23.6245L9.3312 27.2733C8.31907 27.8915 7.06406 26.9797 7.33925 25.826L8.96343 19.0171C9.07944 18.5308 8.91361 18.0204 8.53389 17.6951L3.21771 13.1412C2.31699 12.3697 2.79636 10.8943 3.97856 10.7995L10.9562 10.2402C11.4545 10.2002 11.8887 9.88478 12.0807 9.42313L14.7689 2.95991Z" fill="#14B7A7"/>
<path d="M52.7689 2.95991C53.2244 1.86485 54.7756 1.86485 55.2311 2.9599L57.9193 9.42313C58.1113 9.88478 58.5455 10.2002 59.0438 10.2402L66.0214 10.7995C67.2036 10.8943 67.683 12.3697 66.7823 13.1412L61.4661 17.6951C61.0864 18.0204 60.9206 18.5308 61.0366 19.0171L62.6608 25.826C62.9359 26.9797 61.6809 27.8915 60.6688 27.2733L54.695 23.6245C54.2683 23.3639 53.7317 23.3639 53.305 23.6245L47.3312 27.2733C46.3191 27.8915 45.0641 26.9797 45.3392 25.826L46.9634 19.0171C47.0794 18.5308 46.9136 18.0204 46.5339 17.6951L41.2177 13.1412C40.317 12.3697 40.7964 10.8943 41.9786 10.7995L48.9562 10.2402C49.4545 10.2002 49.8887 9.88478 50.0807 9.42313L52.7689 2.95991Z" fill="#14B7A7"/>
<path d="M90.7689 2.95991C91.2244 1.86485 92.7756 1.86485 93.2311 2.9599L95.9193 9.42313C96.1113 9.88478 96.5455 10.2002 97.0438 10.2402L104.021 10.7995C105.204 10.8943 105.683 12.3697 104.782 13.1412L99.4661 17.6951C99.0864 18.0204 98.9206 18.5308 99.0366 19.0171L100.661 25.826C100.936 26.9797 99.6809 27.8915 98.6688 27.2733L92.695 23.6245C92.2683 23.3639 91.7317 23.3639 91.305 23.6245L85.3312 27.2733C84.3191 27.8915 83.0641 26.9797 83.3392 25.826L84.9634 19.0171C85.0794 18.5308 84.9136 18.0204 84.5339 17.6951L79.2177 13.1412C78.317 12.3697 78.7964 10.8943 79.9786 10.7995L86.9562 10.2402C87.4545 10.2002 87.8887 9.88478 88.0807 9.42313L90.7689 2.95991Z" fill="#14B7A7"/>
<path d="M128.769 2.95991C129.224 1.86485 130.776 1.86485 131.231 2.9599L133.919 9.42313C134.111 9.88478 134.545 10.2002 135.044 10.2402L142.021 10.7995C143.204 10.8943 143.683 12.3697 142.782 13.1412L137.466 17.6951C137.086 18.0204 136.921 18.5308 137.037 19.0171L138.661 25.826C138.936 26.9797 137.681 27.8915 136.669 27.2733L130.695 23.6245C130.268 23.3639 129.732 23.3639 129.305 23.6245L123.331 27.2733C122.319 27.8915 121.064 26.9797 121.339 25.826L122.963 19.0171C123.079 18.5308 122.914 18.0204 122.534 17.6951L117.218 13.1412C116.317 12.3697 116.796 10.8943 117.979 10.7995L124.956 10.2402C125.455 10.2002 125.889 9.88478 126.081 9.42313L128.769 2.95991Z" fill="#14B7A7"/>
<path d="M166.769 2.95991C167.224 1.86485 168.776 1.86485 169.231 2.9599L171.919 9.42313C172.111 9.88478 172.545 10.2002 173.044 10.2402L180.021 10.7995C181.204 10.8943 181.683 12.3697 180.782 13.1412L175.466 17.6951C175.086 18.0204 174.921 18.5308 175.037 19.0171L176.661 25.826C176.936 26.9797 175.681 27.8915 174.669 27.2733L168.695 23.6245C168.268 23.3639 167.732 23.3639 167.305 23.6245L161.331 27.2733C160.319 27.8915 159.064 26.9797 159.339 25.826L160.963 19.0171C161.079 18.5308 160.914 18.0204 160.534 17.6951L155.218 13.1412C154.317 12.3697 154.796 10.8943 155.979 10.7995L162.956 10.2402C163.455 10.2002 163.889 9.88478 164.081 9.42313L166.769 2.95991Z" fill="#14B7A7"/>
<path d="M167.508 5.18396C167.69 4.74594 168.31 4.74594 168.492 5.18396L171.049 11.3305C171.126 11.5152 171.299 11.6414 171.499 11.6573L178.134 12.1893C178.607 12.2272 178.799 12.8174 178.439 13.126L173.383 17.4568C173.231 17.5869 173.165 17.791 173.211 17.9856L174.756 24.4609C174.866 24.9224 174.364 25.2871 173.959 25.0398L168.278 21.5698C168.107 21.4656 167.893 21.4656 167.722 21.5698L162.041 25.0398C161.636 25.2871 161.134 24.9224 161.244 24.4609L162.789 17.9856C162.835 17.791 162.769 17.5869 162.617 17.4568L157.561 13.126C157.201 12.8174 157.393 12.2272 157.866 12.1893L164.501 11.6573C164.701 11.6414 164.874 11.5152 164.951 11.3305L167.508 5.18396Z" fill="white"/>
<path d="M160.584 26L168 22V3L164.663 11.0854L156 11.7852L162.6 17.4821L160.584 26Z" fill="#14B7A7"/>
</svg>
