<svg width="24" height="24" viewBox="0 0 24 24" fill="none" xmlns="http://www.w3.org/2000/svg">
<path d="M12.5455 11.9091C12.5455 9.49915 16.527 7.54549 18.9917 7.54549C21.4565 7.54549 23.4545 9.49915 23.4545 11.9091C23.4545 14.3191 21.4565 16.2728 18.9917 16.2728C16.527 16.2728 12.5455 14.3191 12.5455 11.9091Z" fill="#FF8000" fill-opacity="0.44"/>
<path d="M11.4545 11.9091C11.4545 14.3191 7.27393 16.2728 4.68595 16.2728C2.09797 16.2728 2.84901e-07 14.3191 2.84901e-07 11.9091C2.84901e-07 9.49915 2.09797 7.54549 4.68595 7.54549C7.27393 7.54549 11.4545 9.49915 11.4545 11.9091Z" fill="#FF8000" fill-opacity="0.44"/>
<path d="M19 7C16.197 7 13.0675 10.0675 12 11.2077C10.9325 10.0671 7.803 7 5 7C1.869 7 1.78405e-07 8.84973 0 11.9485C-1.78405e-07 15.0472 1.869 16.8969 5 16.8969C7.803 16.8969 10.9325 13.8294 12 12.6892C13.0675 13.8299 16.197 16.8969 19 16.8969C22.131 16.8969 24 15.0472 24 11.9485C24 8.84973 22.131 7 19 7ZM5 15.9072C1.52 15.9072 1 13.4271 1 11.9485C1 10.4699 1.52 7.98969 5 7.98969C7.431 7.98969 10.401 10.9543 11.3285 11.9485C10.4015 12.9431 7.4345 15.9072 5 15.9072ZM19 15.9072C16.569 15.9072 13.599 12.9426 12.6715 11.9485C13.5985 10.9538 16.5655 7.98969 19 7.98969C22.48 7.98969 23 10.4699 23 11.9485C23 13.4271 22.48 15.9072 19 15.9072Z" fill="#373737"/>
</svg>
